<svg xmlns="http://www.w3.org/2000/svg" viewBox="0 0 197 94">
  <g transform="translate(4, 72) scale(0.072000, -0.072000)" fill="#06B6D4">
    <path transform="translate(0, 0)" d="M32 197Q32 278 64.0 339.0Q96 400 147.0 433.0Q198 466 254 466Q309 466 339.5 433.5Q370 401 370 350Q370 308 351.5 279.0Q333 250 303 250Q284 250 272.5 259.0Q261 268 261 284Q261 291 263.0 300.0Q265 309 266 313Q271 328 271 341Q271 354 264.5 361.0Q258 368 246 368Q223 368 203.0 347.5Q183 327 171.0 292.0Q159 257 159 215Q159 99 260 99Q301 99 348.5 126.5Q396 154 442 209Q454 223 469 223Q482 223 489.5 211.0Q497 199 497 178Q497 140 478 116Q431 58 365.5 26.5Q300 -5 239 -5Q141 -5 86.5 50.5Q32 106 32 197Z"/>
    <path transform="translate(368, 0)" d="M585 261Q585 213 556 204Q496 183 424 180Q405 96 349.0 45.5Q293 -5 222 -5Q162 -5 119.5 24.0Q77 53 55.0 101.0Q33 149 33 205Q33 281 62.0 340.5Q91 400 142.0 433.5Q193 467 255 467Q331 467 377.5 414.5Q424 362 432 285Q479 288 544 305Q552 307 558 307Q571 307 578.0 294.0Q585 281 585 261ZM317 202Q286 223 269.5 257.0Q253 291 253 329Q253 345 256 361H251Q211 361 184.5 322.5Q158 284 158 214Q158 159 179.5 130.0Q201 101 230 101Q262 101 285.5 127.0Q309 153 317 202Z"/>
    <path transform="translate(819, 0)" d="M50 163Q50 293 87 410Q96 439 116.5 452.5Q137 466 174 466Q194 466 202.0 461.0Q210 456 210 442Q210 426 195 370Q185 330 179.0 300.0Q173 270 169 226Q202 312 243.0 366.0Q284 420 323.5 443.0Q363 466 396 466Q461 466 461 401Q461 388 452 338Q444 298 444 288Q444 253 469 253Q497 253 541 297Q554 310 568 310Q581 310 588.5 298.5Q596 287 596 268Q596 231 576 210Q548 181 510.5 160.5Q473 140 431 140Q378 140 350.5 167.0Q323 194 323 240Q323 255 326 270Q328 290 328 297Q328 313 317 313Q302 313 277.5 279.5Q253 246 229.0 191.0Q205 136 190 75Q179 28 164.5 11.5Q150 -5 119 -5Q81 -5 65.5 35.0Q50 75 50 163Z"/>
    <path transform="translate(1274, 0)" d="M95 606Q95 641 122.5 664.5Q150 688 191 688Q228 688 251.0 670.0Q274 652 274 619Q274 579 248.0 555.5Q222 532 179 532Q137 532 116.0 551.5Q95 571 95 606ZM47 163Q47 208 58.5 278.5Q70 349 88 410Q97 442 112.0 454.0Q127 466 160 466Q211 466 211 432Q211 407 192 316Q168 206 168 167Q168 137 176.0 121.0Q184 105 203 105Q221 105 248.0 130.0Q275 155 320 209Q332 223 347 223Q360 223 367.5 211.0Q375 199 375 178Q375 138 356 116Q257 -5 171 -5Q106 -5 76.5 41.0Q47 87 47 163Z"/>
    <path transform="translate(1520, 0)" d="M455 178Q455 138 436 116Q393 63 342.5 29.0Q292 -5 228 -5Q140 -5 97.5 75.0Q55 155 55 282Q55 404 86.5 560.0Q118 716 179.5 828.0Q241 940 326 940Q374 940 401.5 895.5Q429 851 429 768Q429 649 363.0 492.0Q297 335 184 181Q191 140 207.0 122.5Q223 105 249 105Q290 105 321.0 128.5Q352 152 400 209Q412 223 427 223Q440 223 447.5 211.0Q455 199 455 178ZM177 316Q248 433 290.0 550.5Q332 668 332 765Q332 841 304 841Q281 841 252.0 758.0Q223 675 201.0 552.0Q179 429 177 316Z"/>
    <path transform="translate(1846, 0)" d="M455 178Q455 138 436 116Q393 63 342.5 29.0Q292 -5 228 -5Q140 -5 97.5 75.0Q55 155 55 282Q55 404 86.5 560.0Q118 716 179.5 828.0Q241 940 326 940Q374 940 401.5 895.5Q429 851 429 768Q429 649 363.0 492.0Q297 335 184 181Q191 140 207.0 122.5Q223 105 249 105Q290 105 321.0 128.5Q352 152 400 209Q412 223 427 223Q440 223 447.5 211.0Q455 199 455 178ZM177 316Q248 433 290.0 550.5Q332 668 332 765Q332 841 304 841Q281 841 252.0 758.0Q223 675 201.0 552.0Q179 429 177 316Z"/>
    <path transform="translate(2172, 0)" d="M585 261Q585 213 556 204Q496 183 424 180Q405 96 349.0 45.5Q293 -5 222 -5Q162 -5 119.5 24.0Q77 53 55.0 101.0Q33 149 33 205Q33 281 62.0 340.5Q91 400 142.0 433.5Q193 467 255 467Q331 467 377.5 414.5Q424 362 432 285Q479 288 544 305Q552 307 558 307Q571 307 578.0 294.0Q585 281 585 261ZM317 202Q286 223 269.5 257.0Q253 291 253 329Q253 345 256 361H251Q211 361 184.5 322.5Q158 284 158 214Q158 159 179.5 130.0Q201 101 230 101Q262 101 285.5 127.0Q309 153 317 202Z"/>
  </g>
</svg>